# xmcd CD database file
#
# Track frame offsets:
#	150
#	11735
#	26738
#	40632
#	52918
#	66561
#	81146
#	95389
#	109326
#	120505
#	132120
#	145929
#	160151
#	171181
#	184530
#	198640
#	212347
#	223570
#	237684
#	248958
#
# Disc length: 3459 seconds
#
# Revision: 8
# Processed by: cddbd v1.5.2PL0 Copyright (c) Steve Scherf et al.
# Submitted via: CDex 1.51
#
DISCID=1c0d8114
DTITLE=Ella Fitzgerald - Everyone's Wrong But Me  [CD 01-10]
DYEAR=1900
DGENRE=Jazz
TTITLE0=I'll Chase The Blues Away
TTITLE1=Love And Kisses
TTITLE2=Rhythm And Romance
TTITLE3=I'll Chase The Blues Away
TTITLE4=My Melancholy Baby
TTITLE5=All My Life
TTITLE6=Crying My Heart Out For You
TTITLE7=Under The Spell Of The Blues
TTITLE8=When I Get Low I Get High
TTITLE9=Sing Me A Swing Song  (And Let Me Dance)
TTITLE10=A Little Bit Later On
TTITLE11=Love You're Just A Laugh
TTITLE12=Devoting My Time To You
TTITLE13=You'll Have To Swing It
TTITLE14=Swingin' On The Reservation
TTITLE15=I Got The Spring Fever Blues
TTITLE16=Vote For Mr. Rhythm
TTITLE17=Good Night My Love
TTITLE18=Oh, Yes, Take Another Guess
TTITLE19=Didja Mean It
EXTD=
EXTT0=
EXTT1=
EXTT2=
EXTT3=
EXTT4=
EXTT5=
EXTT6=
EXTT7=
EXTT8=
EXTT9=
EXTT10=
EXTT11=
EXTT12=
EXTT13=
EXTT14=
EXTT15=
EXTT16=
EXTT17=
EXTT18=
EXTT19=
PLAYORDER=
